<mxfile host="app.diagrams.net" modified="2023-06-09T07:00:32.037Z" agent="Mozilla/5.0 (Windows NT 10.0; Win64; x64; rv:109.0) Gecko/20100101 Firefox/113.0" version="21.3.8" etag="MvnF9gngBKXiMQ9epUer" type="github">
  <diagram name="Page-1" id="2BWBL9LhCVE8aSUYxhcr">
    <mxGraphModel>
      <root>
        <mxCell id="0" />
        <mxCell id="1" parent="0" />
      </root>
    </mxGraphModel>
  </diagram>
</mxfile>
